<?xml version="1.0" standalone="no"?>
<!DOCTYPE svg PUBLIC "-//W3C//DTD SVG 20010904//EN"
 "http://www.w3.org/TR/2001/REC-SVG-20010904/DTD/svg10.dtd">
<svg version="1.0" xmlns="http://www.w3.org/2000/svg"
 width="885.000000pt" height="885.000000pt" viewBox="0 0 885.000000 885.000000"
 preserveAspectRatio="xMidYMid meet">
<metadata>
Created by potrace 1.11, written by Peter Selinger 2001-2013
</metadata>
<g transform="translate(0.000000,885.000000) scale(0.100000,-0.100000)"
fill="#000000" stroke="none">
<path d="M4327 8844 c-1 -1 -58 -4 -127 -8 -184 -9 -317 -22 -430 -41 -14 -2
-45 -7 -70 -10 -85 -12 -335 -66 -445 -97 -413 -115 -759 -263 -1118 -480
-237 -142 -441 -293 -657 -483 -59 -52 -324 -317 -375 -376 -292 -333 -575
-773 -730 -1139 -15 -36 -33 -78 -40 -95 -34 -78 -124 -326 -138 -380 -3 -11
-16 -58 -30 -105 -24 -84 -38 -134 -43 -157 -1 -6 -11 -53 -23 -105 -20 -88
-42 -213 -55 -303 -21 -145 -26 -191 -33 -280 -10 -124 -10 -635 0 -730 11
-98 17 -154 22 -195 3 -19 8 -57 11 -85 5 -44 58 -324 69 -365 3 -8 9 -35 15
-60 43 -177 176 -578 201 -604 5 -6 9 -16 9 -22 0 -21 113 -260 189 -400 144
-267 358 -577 540 -784 300 -340 595 -598 941 -822 282 -183 599 -341 910
-454 150 -54 470 -146 558 -160 15 -2 38 -7 52 -10 43 -10 62 -14 160 -29 52
-9 104 -17 116 -19 11 -2 52 -7 90 -11 38 -4 77 -9 86 -11 125 -22 721 -22
868 1 14 2 54 6 90 10 78 8 101 11 240 35 30 5 71 12 90 15 199 33 658 172
850 257 333 148 506 242 760 411 92 61 296 210 310 226 3 3 46 39 95 80 75 61
379 360 460 451 97 109 298 376 378 503 20 31 53 81 72 111 19 30 35 57 35 61
0 4 8 19 19 33 45 65 177 331 252 510 5 12 13 32 19 45 47 106 164 463 185
565 2 9 13 56 24 104 11 47 23 101 26 120 3 18 12 69 20 113 17 96 22 131 30
210 4 33 8 71 10 84 19 116 26 575 12 776 -28 398 -106 769 -244 1160 -50 144
-49 140 -124 310 -167 379 -389 733 -668 1065 -109 130 -327 352 -446 456 -44
38 -82 71 -85 74 -3 3 -27 23 -55 45 -27 21 -52 42 -55 45 -9 10 -185 137
-267 193 -141 96 -322 201 -488 283 -143 71 -374 174 -391 174 -3 0 -20 6 -37
14 -112 51 -533 169 -716 201 -47 8 -95 17 -106 19 -11 2 -45 7 -75 11 -30 4
-64 9 -75 11 -10 2 -49 6 -85 10 -36 3 -76 7 -90 9 -50 9 -485 25 -493 19z"/>
</g>
</svg>
