<?xml version="1.0" standalone="no"?>
<!DOCTYPE svg PUBLIC "-//W3C//DTD SVG 20010904//EN"
 "http://www.w3.org/TR/2001/REC-SVG-20010904/DTD/svg10.dtd">
<svg version="1.0" xmlns="http://www.w3.org/2000/svg"
 width="260.000000pt" height="260.000000pt" viewBox="0 0 260.000000 260.000000"
 preserveAspectRatio="xMidYMid meet">
<metadata>
Created by potrace 1.11, written by Peter Selinger 2001-2013
</metadata>
<g transform="translate(0.000000,260.000000) scale(0.100000,-0.100000)"
fill="#000000" stroke="none">
<path d="M1180 2364 c-14 -2 -52 -9 -85 -15 -138 -25 -307 -97 -420 -181 -127
-94 -271 -265 -327 -388 -79 -172 -108 -299 -108 -474 0 -223 65 -431 188
-606 389 -551 1178 -612 1639 -127 103 109 169 211 224 349 83 207 92 479 24
707 -61 200 -219 418 -395 543 -114 81 -247 140 -390 174 -63 15 -300 27 -350
18z m639 -580 c17 -14 31 -35 31 -47 0 -14 -36 -58 -102 -124 l-101 -102 17
-45 c33 -87 41 -76 -304 -421 -290 -291 -317 -315 -348 -315 -31 0 -48 12
-138 102 -108 106 -120 123 -110 163 9 34 622 645 649 647 38 2 61 -2 94 -18
42 -19 48 -16 158 95 49 50 97 91 107 91 9 0 30 -12 47 -26z"/>
</g>
</svg>
